<svg width="14" height="7" viewBox="0 0 14 7" fill="none" xmlns="http://www.w3.org/2000/svg">
    <path
        d="M14.0013 1.16056C14.0018 1.30995 13.9688 1.45756 13.9048 1.59254C13.8407 1.72752 13.7473 1.84644 13.6313 1.94056L7.63125 6.77056C7.45232 6.91764 7.22788 6.99805 6.99625 6.99805C6.76463 6.99805 6.54018 6.91764 6.36125 6.77056L0.361252 1.77056C0.157035 1.60082 0.028611 1.35691 0.00423124 1.09248C-0.0201485 0.828057 0.0615134 0.564775 0.231252 0.360559C0.40099 0.156342 0.644902 0.0279183 0.909328 0.00353857C1.17375 -0.0208412 1.43704 0.06082 1.64125 0.230559L7.00125 4.70056L12.3613 0.380559C12.508 0.258276 12.6868 0.180599 12.8763 0.156719C13.0659 0.13284 13.2583 0.163756 13.4308 0.245812C13.6034 0.327868 13.7488 0.457628 13.8499 0.619738C13.9509 0.781849 14.0035 0.969525 14.0013 1.16056Z"
        fill="white" />
</svg>