<svg width="41" height="41" viewBox="0 0 41 41" fill="none" xmlns="http://www.w3.org/2000/svg">
<circle opacity="0.5" cx="19.9629" cy="19.9629" r="19.9629" transform="matrix(-0.999669 0.0257268 0.0257268 0.999669 39.9121 0)" fill="white"/>
<path d="M21.7034 26.9426C21.9191 26.943 22.128 26.8679 22.2941 26.7304C22.3875 26.6529 22.4648 26.5577 22.5214 26.4504C22.578 26.343 22.6129 26.2255 22.624 26.1046C22.6352 25.9837 22.6224 25.8619 22.5863 25.7459C22.5503 25.63 22.4918 25.5224 22.414 25.4291L18.2796 20.4825L22.2664 15.5267C22.343 15.4323 22.4003 15.3236 22.4348 15.207C22.4694 15.0905 22.4805 14.9682 22.4677 14.8473C22.4548 14.7263 22.4182 14.6091 22.3599 14.5024C22.3016 14.3957 22.2228 14.3016 22.128 14.2254C22.0325 14.1414 21.9206 14.078 21.7995 14.0393C21.6784 14.0005 21.5505 13.9872 21.424 14.0002C21.2975 14.0132 21.175 14.0522 21.0643 14.1148C20.9536 14.1774 20.857 14.2622 20.7806 14.3638L16.3231 19.9011C16.1873 20.0662 16.1131 20.2733 16.1131 20.4871C16.1131 20.7009 16.1873 20.908 16.3231 21.0731L20.9374 26.6104C21.03 26.7221 21.1476 26.8103 21.2807 26.8681C21.4138 26.9258 21.5586 26.9513 21.7034 26.9426Z" fill="white"/>
</svg>
