<svg width="41" height="41" viewBox="0 0 41 41" fill="none" xmlns="http://www.w3.org/2000/svg">
<circle opacity="0.5" cx="20.47" cy="20.4698" r="19.9629" transform="rotate(1.4742 20.47 20.4698)" fill="white"/>
<path d="M19.236 26.9426C19.0204 26.943 18.8114 26.8679 18.6454 26.7304C18.5519 26.6529 18.4747 26.5577 18.4181 26.4504C18.3614 26.343 18.3266 26.2255 18.3154 26.1046C18.3043 25.9837 18.3171 25.8619 18.3531 25.7459C18.3892 25.63 18.4477 25.5224 18.5254 25.4291L22.6599 20.4825L18.6731 15.5267C18.5964 15.4323 18.5392 15.3236 18.5046 15.207C18.4701 15.0905 18.4589 14.9682 18.4718 14.8473C18.4846 14.7263 18.5213 14.6091 18.5796 14.5024C18.6379 14.3957 18.7167 14.3016 18.8115 14.2254C18.907 14.1414 19.0188 14.078 19.1399 14.0393C19.2611 14.0005 19.3889 13.9872 19.5154 14.0002C19.642 14.0132 19.7644 14.0522 19.8752 14.1148C19.9859 14.1774 20.0825 14.2622 20.1589 14.3638L24.6164 19.9011C24.7521 20.0662 24.8263 20.2733 24.8263 20.4871C24.8263 20.7009 24.7521 20.908 24.6164 21.0731L20.002 26.6104C19.9094 26.7221 19.7918 26.8103 19.6587 26.8681C19.5256 26.9258 19.3808 26.9513 19.236 26.9426Z" fill="white"/>
</svg>
