<svg width="440" height="269" viewBox="0 0 440 269" fill="none" xmlns="http://www.w3.org/2000/svg">
<path d="M209.334 0.62793H46.7454C35.6997 0.62793 26.7454 9.58222 26.7454 20.6279V249C26.7454 260.046 35.6997 269 46.7454 269H419.745C430.791 269 439.745 260.046 439.745 249V20.6279C439.745 9.58223 430.791 0.62793 419.745 0.62793H261.461L240.4 21.4088C238.435 23.3484 235.163 23.4388 233.094 21.6109L209.334 0.62793Z" fill="#969AF7"/>
<path d="M209.334 0.62793H46.7454C35.6997 0.62793 26.7454 9.58222 26.7454 20.6279V249C26.7454 260.046 35.6997 269 46.7454 269H419.745C430.791 269 439.745 260.046 439.745 249V20.6279C439.745 9.58223 430.791 0.62793 419.745 0.62793H261.461L240.4 21.4088C238.435 23.3484 235.163 23.4388 233.094 21.6109L209.334 0.62793Z" fill="url(#paint0_linear_13_335)"/>
<path d="M44.6281 66.556C46.1662 64.2626 48.6601 64.2626 50.1983 66.556L93.6727 131.374C95.2109 133.668 95.2109 137.386 93.6727 139.679L50.1983 204.498C48.6601 206.791 46.1662 206.791 44.628 204.498L1.15363 139.679C-0.384545 137.386 -0.384543 133.668 1.15363 131.374L44.6281 66.556Z" fill="#969AF7"/>
<path d="M44.6281 66.556C46.1662 64.2626 48.6601 64.2626 50.1983 66.556L93.6727 131.374C95.2109 133.668 95.2109 137.386 93.6727 139.679L50.1983 204.498C48.6601 206.791 46.1662 206.791 44.628 204.498L1.15363 139.679C-0.384545 137.386 -0.384543 133.668 1.15363 131.374L44.6281 66.556Z" fill="url(#paint1_linear_13_335)"/>
<defs>
<linearGradient id="paint0_linear_13_335" x1="-53.5002" y1="-20.3892" x2="440.182" y2="53.5654" gradientUnits="userSpaceOnUse">
<stop offset="0.0851517" stop-color="#041080"/>
<stop offset="1" stop-color="#0926C0"/>
</linearGradient>
<linearGradient id="paint1_linear_13_335" x1="-53.5002" y1="-20.3892" x2="440.182" y2="53.5654" gradientUnits="userSpaceOnUse">
<stop offset="0.0851517" stop-color="#041080"/>
<stop offset="1" stop-color="#0926C0"/>
</linearGradient>
</defs>
</svg>
